# xmcd CD database file
#
# Track frame offsets:
#	150
#	26152
#	52334
#	85922
#	114977
#	139930
#	180349
#	208171
#	236641
#	273572
#	301338
#
# Disc length: 4435 seconds
#
# Revision: 0
# Processed by: cddbd v1.5.2PL0 Copyright (c) Steve Scherf et al.
# Submitted via: CDex 1.51
#
DISCID=9f11510b
DTITLE=Joachim Schoenecker - Blunatic
DYEAR=2007
DGENRE=Jazz
TTITLE0=Midnight Blue
TTITLE1=Bud's Beau Arts
TTITLE2=Driftin'
TTITLE3=Moment's Notice
TTITLE4=Dear old Stockholm
TTITLE5=Burglaria Blues
TTITLE6=Black Nile
TTITLE7=Peace
TTITLE8=The Kicker
TTITLE9=Back and Fourth
TTITLE10=Virgo
EXTD=YEAR: 2007
EXTT0=
EXTT1=
EXTT2=
EXTT3=
EXTT4=
EXTT5=
EXTT6=
EXTT7=
EXTT8=
EXTT9=
EXTT10=
PLAYORDER=
